<?xml version="1.0" encoding="UTF-8" standalone="no"?><!-- Generator: Gravit.io --><svg xmlns="http://www.w3.org/2000/svg" xmlns:xlink="http://www.w3.org/1999/xlink" style="isolation:isolate" viewBox="395 508 139 159" width="139pt" height="159pt"><defs><clipPath id="_clipPath_wAIOqMINIrr48wO6KQ2iACUb8O3CEJgd"><rect x="395" y="508" width="139" height="159"/></clipPath></defs><g clip-path="url(#_clipPath_wAIOqMINIrr48wO6KQ2iACUb8O3CEJgd)"><path d=" M 418.604 587.5 L 430.146 587.5 C 432.549 587.5 434.5 589.451 434.5 591.854 L 434.5 603.646 C 434.5 606.049 432.549 608 430.146 608 L 418.604 608 C 416.201 608 414.25 606.049 414.25 603.646 L 414.25 591.854 C 414.25 589.451 416.201 587.5 418.604 587.5 L 418.604 587.5 L 418.604 587.5 L 418.604 587.5 L 418.604 587.5 L 418.604 587.5 Z  M 458.785 587.5 L 470.328 587.5 C 472.731 587.5 474.682 589.451 474.682 591.854 L 474.682 603.646 C 474.682 606.049 472.731 608 470.328 608 L 458.785 608 C 456.382 608 454.432 606.049 454.432 603.646 L 454.432 591.854 C 454.432 589.451 456.382 587.5 458.785 587.5 L 458.785 587.5 L 458.785 587.5 L 458.785 587.5 L 458.785 587.5 Z  M 498.854 587.5 L 510.396 587.5 C 512.799 587.5 514.75 589.451 514.75 591.854 L 514.75 603.646 C 514.75 606.049 512.799 608 510.396 608 L 498.854 608 C 496.451 608 494.5 606.049 494.5 603.646 L 494.5 591.854 C 494.5 589.451 496.451 587.5 498.854 587.5 L 498.854 587.5 L 498.854 587.5 L 498.854 587.5 Z  M 498.854 627.5 L 510.396 627.5 C 512.799 627.5 514.75 629.451 514.75 631.854 L 514.75 643.646 C 514.75 646.049 512.799 648 510.396 648 L 498.854 648 C 496.451 648 494.5 646.049 494.5 643.646 L 494.5 631.854 C 494.5 629.451 496.451 627.5 498.854 627.5 L 498.854 627.5 L 498.854 627.5 Z  M 458.785 627.5 L 470.328 627.5 C 472.731 627.5 474.682 629.451 474.682 631.854 L 474.682 643.646 C 474.682 646.049 472.731 648 470.328 648 L 458.785 648 C 456.382 648 454.432 646.049 454.432 643.646 L 454.432 631.854 C 454.432 629.451 456.382 627.5 458.785 627.5 L 458.785 627.5 Z  M 395 568 L 534 568 L 534 653 C 534 660.727 527.727 667 520 667 L 409 667 C 401.273 667 395 660.727 395 653 L 395 568 L 395 568 L 395 568 L 395 568 L 395 568 L 395 568 Z  M 418.717 627.5 L 430.259 627.5 C 432.662 627.5 434.613 629.451 434.613 631.854 L 434.613 643.646 C 434.613 646.049 432.662 648 430.259 648 L 418.717 648 C 416.314 648 414.363 646.049 414.363 643.646 L 414.363 631.854 C 414.363 629.451 416.314 627.5 418.717 627.5 Z " fill-rule="evenodd" fill="rgb(93,93,93)"/><path d="M 409 528 L 520 528 C 527.727 528 534 534.273 534 542 L 534 558 L 395 558 L 395 542 C 395 534.273 401.273 528 409 528 Z" style="stroke:none;fill:#5D5D5D;stroke-miterlimit:10;"/><path d="M 431 508 L 438 508 C 441.863 508 445 511.137 445 515 L 445 528 L 424 528 L 424 515 C 424 511.137 427.137 508 431 508 Z" style="stroke:none;fill:#5D5D5D;stroke-miterlimit:10;"/><path d="M 491 508 L 498 508 C 501.863 508 505 511.137 505 515 L 505 528 L 484 528 L 484 515 C 484 511.137 487.137 508 491 508 Z" style="stroke:none;fill:#5D5D5D;stroke-miterlimit:10;"/></g></svg>