<?xml version="1.0" encoding="UTF-8" standalone="no"?><!-- Generator: Gravit.io --><svg xmlns="http://www.w3.org/2000/svg" xmlns:xlink="http://www.w3.org/1999/xlink" style="isolation:isolate" viewBox="398.728 421.348 171.698 126.69" width="171.698pt" height="126.69pt"><defs><clipPath id="_clipPath_DKW5tGNmgIhHNgpK67XFwF1RUjxRMdas"><rect x="398.728" y="421.348" width="171.698" height="126.69"/></clipPath></defs><g clip-path="url(#_clipPath_DKW5tGNmgIhHNgpK67XFwF1RUjxRMdas)"><path d=" M 569.899 536.853 C 571.563 531.05 569.29 524.887 563.081 518.349 C 556.913 512.072 549.69 507.45 541.411 504.47 L 510.732 494.244 L 481.758 432.155 C 481.352 430.248 480.216 428.792 478.349 427.773 L 457.896 421.442 C 454.111 420.936 451.757 422.482 450.835 426.068 L 463.009 479.148 L 430.383 468.434 L 423.078 446.034 C 422.33 444.504 421.113 443.292 419.426 442.382 L 407.008 438.242 C 402.981 437.766 400.708 439.394 400.191 443.112 L 398.73 476.713 C 398.687 479.264 399.661 481.541 401.652 483.53 L 428.678 510.557 C 430.599 512.734 433.115 514.281 436.226 515.183 L 528.02 545.132 C 536.257 548.178 544.86 548.833 553.829 547.08 C 561.749 545.609 567.106 542.205 569.899 536.853 Z " fill="rgb(117,118,119)"/></g></svg>