<?xml version="1.0" encoding="UTF-8" standalone="no"?><!-- Generator: Gravit.io --><svg xmlns="http://www.w3.org/2000/svg" xmlns:xlink="http://www.w3.org/1999/xlink" style="isolation:isolate" viewBox="779 439.427 217 169.573" width="217pt" height="169.573pt"><defs><clipPath id="_clipPath_rYfbvg2dKuwDOqhEjzt1JkUTGH6X6z2Y"><rect x="779" y="439.427" width="217" height="169.573"/></clipPath></defs><g clip-path="url(#_clipPath_rYfbvg2dKuwDOqhEjzt1JkUTGH6X6z2Y)"><path d=" M 992.748 476.428 L 959.024 442.209 C 949.789 436.885 944.173 439.204 942.163 449.152 L 942.163 469.485 L 789.415 469.485 C 783.413 470.44 779.946 473.916 779 479.9 L 779 486.347 C 779.477 492.726 782.953 496.037 789.415 496.266 L 942.163 496.266 L 942.163 517.095 C 943.072 527.344 948.697 529.663 959.024 524.038 L 992.748 489.818 C 997.082 485.83 997.087 481.372 992.748 476.428 Z " fill="rgb(93,93,93)"/><path d=" M 782.252 558.402 L 815.976 524.183 C 825.211 518.859 830.827 521.178 832.837 531.126 L 832.837 551.459 L 985.585 551.459 C 991.587 552.414 995.054 555.89 996 561.874 L 996 568.321 C 995.523 574.7 992.047 578.011 985.585 578.24 L 832.837 578.24 L 832.837 599.069 C 831.928 609.318 826.303 611.637 815.976 606.012 L 782.252 571.792 C 777.918 567.804 777.913 563.346 782.252 558.402 Z " fill="rgb(93,93,93)"/></g></svg>