<?xml version="1.0" encoding="UTF-8" standalone="no"?><!-- Generator: Gravit.io --><svg xmlns="http://www.w3.org/2000/svg" xmlns:xlink="http://www.w3.org/1999/xlink" style="isolation:isolate" viewBox="384.337 444.34 191.605 95.588" width="191.605pt" height="95.588pt"><defs><clipPath id="_clipPath_mt9gxhDDhlBYhmVSRzyYmB5MCN1zxTto"><rect x="384.337" y="444.34" width="191.605" height="95.588"/></clipPath></defs><g clip-path="url(#_clipPath_mt9gxhDDhlBYhmVSRzyYmB5MCN1zxTto)"><path d=" M 575.529 468.506 C 573.045 463.004 567.326 459.772 558.362 458.801 C 549.598 458.002 541.1 459.148 532.858 462.229 L 502.844 474.269 L 440.591 445.65 C 439.048 444.458 437.24 444.082 435.157 444.512 L 415.463 452.91 C 412.248 454.972 411.453 457.674 413.069 461.005 L 456.681 493.618 L 424.867 506.546 L 404.809 494.185 C 403.25 493.502 401.537 493.364 399.662 493.761 L 387.513 498.634 C 384.133 500.875 383.452 503.587 385.463 506.758 L 406.078 533.331 C 407.695 535.304 409.911 536.411 412.716 536.641 L 450.808 539.777 C 453.681 540.195 456.601 539.748 459.557 538.424 L 548.94 501.904 C 557.192 498.901 564.177 493.836 569.885 486.698 C 574.975 480.454 576.859 474.394 575.529 468.506 Z " fill="rgb(117,118,119)"/></g></svg>